<svg width="43" height="43" viewBox="0 0 43 43" fill="none" xmlns="http://www.w3.org/2000/svg">
<path d="M21.0114 20.8177L2.44318 11.0449V32.25C2.44319 32.339 2.46751 32.4263 2.51351 32.5025C2.55951 32.5787 2.62545 32.6409 2.70421 32.6823L21.0114 42.3177V20.8177Z" fill="white"/>
<path d="M21.5 19.9706L40.0682 10.1978L21.7276 0.544922C21.6574 0.508021 21.5793 0.488739 21.5 0.488739C21.4207 0.488739 21.3426 0.508021 21.2724 0.544922L2.93182 10.1978L21.5 19.9706Z" fill="white"/>
<path d="M21.9886 20.8177V42.3177L40.2958 32.6823C40.3745 32.6409 40.4404 32.5787 40.4864 32.5025C40.5324 32.4263 40.5568 32.339 40.5568 32.25V11.045L21.9886 20.8177Z" fill="white"/>
</svg>
