<?xml version="1.0" encoding="UTF-8"?>
<svg xmlns="http://www.w3.org/2000/svg" xmlns:xlink="http://www.w3.org/1999/xlink" viewBox="0 0 50 50" width="50px" height="50px">
<g id="surface16604544">
<path style=" stroke:none;fill-rule:nonzero;fill:rgb(100%,100%,100%);fill-opacity:1;" d="M 5.488281 24.746094 L 18.425781 28.460938 L 15.582031 19.617188 Z M 44.570312 25.523438 L 31.761719 22.65625 L 34.074219 32.261719 Z M 17.675781 17.449219 L 29.066406 20.003906 L 25.363281 4.617188 Z M 29.585938 22.167969 L 17.644531 19.492188 L 20.738281 29.125 L 32.042969 32.371094 Z M 31.878906 34.40625 L 21.476562 31.417969 L 25.980469 45.433594 Z M 33.992188 34.691406 L 27.171875 47.449219 L 46.75 26.503906 Z M 47.226562 24.019531 L 26.84375 2.207031 L 31.242188 20.488281 L 47.039062 24.027344 C 47.101562 24.015625 47.164062 24.019531 47.226562 24.019531 Z M 19.160156 30.753906 L 2.921875 26.089844 L 24.644531 47.8125 Z M 15.304688 17.515625 L 24.238281 2.605469 L 3.152344 23.6875 Z M 15.304688 17.515625 "/>
</g>
</svg>
