<svg width="62" height="62" viewBox="0 0 62 62" fill="none" xmlns="http://www.w3.org/2000/svg">
<path d="M33.1 7.99678C32.8878 7.62739 32.5819 7.3205 32.2132 7.1071C31.8445 6.8937 31.426 6.78133 31 6.78133C30.574 6.78133 30.1555 6.8937 29.7868 7.1071C29.4181 7.3205 29.1122 7.62739 28.9 7.99678L3.58062 52.0711C3.36906 52.4394 3.25805 52.8568 3.25873 53.2815C3.25942 53.7062 3.37176 54.1232 3.5845 54.4908C3.79724 54.8583 4.1029 55.1635 4.4708 55.3757C4.83871 55.5878 5.25594 55.6995 5.68063 55.6995H56.3194C56.7441 55.6995 57.1613 55.5878 57.5292 55.3756C57.8971 55.1635 58.2027 54.8584 58.4154 54.4908C58.6282 54.1233 58.7405 53.7062 58.7412 53.2816C58.7419 52.8569 58.6309 52.4395 58.4194 52.0713L33.1 7.99678ZM8.19127 51.8245L31 12.1204L53.8088 51.8245H8.19127Z" fill="white"/>
</svg>
